HIERARCHY
ROOT Hips
{
	OFFSET -32.860001 56.121803 44.745396
	CHANNELS 6 Xposition Yposition Zposition Zrotation Xrotation Yrotation
	JOINT Chest
	{
		OFFSET -0.637402 0.831600 5.390099
		CHANNELS 6 Xposition Yposition Zposition Zrotation Xrotation Yrotation
		JOINT Chest2
		{
			OFFSET 0.000000 0.000000 4.429901
			CHANNELS 6 Xposition Yposition Zposition Zrotation Xrotation Yrotation
			JOINT Neck
			{
				OFFSET 0.000000 0.000000 10.301395
				CHANNELS 6 Xposition Yposition Zposition Zrotation Xrotation Yrotation
				JOINT Head
				{
					OFFSET 0.000000 0.000000 2.173897
					CHANNELS 6 Xposition Yposition Zposition Zrotation Xrotation Yrotation
					End Site
					{
						OFFSET 0.000000 0.000000 8.298004
					}
				}
			}
			JOINT LeftCollar
			{
				OFFSET 2.142401 -0.572701 5.717800
				CHANNELS 6 Xposition Yposition Zposition Zrotation Xrotation Yrotation
				JOINT LeftShoulder
				{
					OFFSET 5.674000 0.000000 0.000000
					CHANNELS 6 Xposition Yposition Zposition Zrotation Xrotation Yrotation
					JOINT LeftElbow
					{
						OFFSET 0.000000 0.000000 -12.238701
						CHANNELS 6 Xposition Yposition Zposition Zrotation Xrotation Yrotation
						JOINT LeftWrist
						{
							OFFSET 0.000000 0.000000 -10.253700
							CHANNELS 6 Xposition Yposition Zposition Zrotation Xrotation Yrotation
							End Site
							{
								OFFSET 0.000000 0.000000 -2.173901
							}
						}
					}
				}
			}
			JOINT RightCollar
			{
				OFFSET -2.882599 -1.580101 6.695801
				CHANNELS 6 Xposition Yposition Zposition Zrotation Xrotation Yrotation
				JOINT RightShoulder
				{
					OFFSET -4.235600 0.000000 0.000000
					CHANNELS 6 Xposition Yposition Zposition Zrotation Xrotation Yrotation
					JOINT RightElbow
					{
						OFFSET 0.000000 0.000000 -10.709900
						CHANNELS 6 Xposition Yposition Zposition Zrotation Xrotation Yrotation
						JOINT RightWrist
						{
							OFFSET 0.000000 0.000000 -11.716801
							CHANNELS 6 Xposition Yposition Zposition Zrotation Xrotation Yrotation
							End Site
							{
								OFFSET 0.000000 0.000000 -2.173901
							}
						}
					}
				}
			}
		}
	}
	JOINT LeftHip
	{
		OFFSET 2.279499 0.210400 -2.475502
		CHANNELS 6 Xposition Yposition Zposition Zrotation Xrotation Yrotation
		JOINT LeftKnee
		{
			OFFSET 0.000000 -0.000004 -20.742800
			CHANNELS 6 Xposition Yposition Zposition Zrotation Xrotation Yrotation
			JOINT LeftAnkle
			{
				OFFSET 0.000000 0.000000 -16.666000
				CHANNELS 6 Xposition Yposition Zposition Zrotation Xrotation Yrotation
				End Site
				{
					OFFSET 0.000000 -8.310898 0.000000
				}
			}
		}
	}
	JOINT RightHip
	{
		OFFSET -1.961899 0.232300 -2.727402
		CHANNELS 6 Xposition Yposition Zposition Zrotation Xrotation Yrotation
		JOINT RightKnee
		{
			OFFSET 0.000000 -0.000004 -20.526800
			CHANNELS 6 Xposition Yposition Zposition Zrotation Xrotation Yrotation
			JOINT RightAnkle
			{
				OFFSET 0.000000 0.000000 -16.867300
				CHANNELS 6 Xposition Yposition Zposition Zrotation Xrotation Yrotation
				End Site
				{
					OFFSET 0.000000 -7.186401 0.000000
				}
			}
		}
	}
}
MOTION
Frames: 7
Frame Time: 0.041667
40.908699 32.587303 41.635689 1072.760986 10.355070 3.340541 -0.637407 0.831598 5.390097 6.410944 -9.273637 10.839917 0.000004 -0.000010 4.429897 -13.137025 -1.120529 -1.109045 -0.000008 0.000010 10.301400 397.367456 -6.842398 -18.248677 -0.000007 -0.000002 2.173898 -357.214167 -1.599385 2.173470 2.142398 -0.572698 5.717806 -3.136242 -1.416874 -13.382696 5.674004 0.000003 -0.000005 167.262262 -177.484583 84.725710 0.000005 0.000000 -12.238709 -276.969990 -177.945320 -300.539416 0.000005 0.000001 -10.253701 481.559045 -187.720100 158.518145 -2.882602 -1.580093 6.695803 -2.936362 -2.901399 31.260413 -4.235607 -0.000002 -0.000000 -170.724758 242.668780 -73.531563 0.000005 -0.000003 -10.709900 120.570884 -167.862527 168.367442 -0.000003 0.000004 -11.716799 -9.388847 2.620697 8.341675 2.279490 0.210404 -2.475503 440.075782 -41.960253 21.522251 -0.000004 -0.000010 -20.742798 -15.271058 26.645512 -11.172402 -0.000001 0.000000 -16.666000 17.463752 10.134972 15.776549 -1.961899 0.232311 -2.727409 -755.969053 -31.632662 -14.242462 0.000005 -0.000006 -20.526800 938.789065 116.801398 -209.883476 0.000005 -0.000001 -16.867300 -391.309297 6.270569 -6.181274
40.914604 32.622696 41.636387 1073.160306 10.420288 3.092579 -0.637401 0.831599 5.390098 6.065847 -9.386596 11.027172 0.000002 0.000007 4.429890 -12.981334 -1.100234 -1.089968 -0.000006 0.000004 10.301394 397.358522 -6.884002 -18.097165 0.000003 0.000001 2.173894 -357.163624 -1.646145 2.288914 2.142395 -0.572697 5.717801 -3.096593 -1.422141 -13.365610 5.674001 0.000004 0.000002 167.217347 -177.338089 84.650093 -0.000000 0.000001 -12.238711 -277.310434 -177.746849 -300.516193 0.000001 0.000001 -10.253692 481.291356 -187.677506 158.441633 -2.882601 -1.580096 6.695789 -2.549558 -2.375820 31.222031 -4.235609 0.000001 -0.000014 -170.816556 242.586080 -72.836605 0.000015 0.000005 -10.709895 119.835491 -168.099152 168.368439 0.000000 0.000011 -11.716805 -8.977449 2.605657 8.253284 2.279498 0.210399 -2.475492 438.973061 -41.928865 21.196121 0.000005 -0.000010 -20.742794 -15.287229 26.675292 -11.075329 -0.000003 0.000001 -16.666002 18.062644 10.071941 15.794778 -1.961895 0.232302 -2.727405 -756.215268 -31.814027 -14.092238 -0.000001 0.000001 -20.526796 939.633495 116.911952 -210.667459 0.000005 -0.000003 -16.867298 -391.113243 5.901604 -7.433040
40.923706 32.651207 41.637985 1073.257568 10.335610 3.081908 -0.637402 0.831600 5.390102 6.003606 -9.424993 10.967819 -0.000003 0.000001 4.429901 -12.720342 -1.072081 -1.069899 -0.000006 0.000000 10.301397 397.254976 -6.750907 -17.818256 -0.000007 0.000001 2.173889 -357.154526 -1.855988 2.287247 2.142393 -0.572697 5.717800 -3.334953 -1.238226 -13.086631 5.673995 0.000004 -0.000005 167.431596 -177.226730 84.345234 0.000008 0.000006 -12.238706 -277.670850 -177.317134 -300.578375 0.000000 0.000000 -10.253692 480.842367 -187.639981 158.398043 -2.882601 -1.580094 6.695791 -2.597345 -2.358216 31.447536 -4.235606 0.000003 -0.000007 -170.392470 242.722083 -72.439654 0.000003 -0.000010 -10.709890 119.006443 -168.405704 168.364423 0.000002 0.000005 -11.716803 -7.997577 2.518375 8.261040 2.279483 0.210395 -2.475497 438.131637 -42.006807 20.662823 0.000001 -0.000007 -20.742798 -15.425741 26.672176 -10.881952 0.000000 0.000001 -16.665995 18.642564 10.008572 15.808977 -1.961901 0.232306 -2.727400 -756.222863 -31.768374 -14.014232 0.000004 -0.000011 -20.526802 939.063803 116.851942 -210.120661 -0.000002 -0.000002 -16.867302 -390.737091 6.025555 -7.747055
40.923218 32.672100 41.640800 1073.367069 10.246376 3.158396 -0.637399 0.831593 5.390093 5.934828 -9.554396 10.820293 0.000000 0.000004 4.429907 -12.413072 -1.041885 -1.060746 -0.000004 0.000000 10.301396 397.155174 -6.544027 -17.594214 -0.000002 -0.000003 2.173908 -357.130265 -2.073497 2.272761 2.142394 -0.572699 5.717804 -3.645286 -0.912838 -12.697060 5.674000 0.000007 0.000004 167.650791 -177.084307 83.945504 0.000003 -0.000003 -12.238703 -277.662380 -177.393263 -300.619684 0.000005 0.000002 -10.253701 480.759093 -187.594943 158.329755 -2.882606 -1.580096 6.695800 -2.674606 -2.362902 31.767053 -4.235608 -0.000001 0.000000 -169.987959 242.803062 -72.134529 0.000005 0.000005 -10.709903 119.143989 -168.522528 168.590037 0.000002 0.000004 -11.716807 -7.831125 2.509426 8.265841 2.279505 0.210404 -2.475506 437.480255 -42.158414 20.249113 0.000001 -0.000010 -20.742802 -15.385283 26.684388 -10.828302 0.000001 -0.000005 -16.666004 18.928563 9.949785 15.828799 -1.961893 0.232300 -2.727413 -756.435364 -31.621068 -14.062537 0.000002 -0.000006 -20.526806 939.929980 116.984270 -210.821288 -0.000001 0.000004 -16.867298 -390.869023 5.810427 -8.082614
40.926407 32.688904 41.645294 1073.396904 10.038589 3.201634 -0.637397 0.831596 5.390095 5.941542 -9.504248 10.739451 0.000001 0.000000 4.429905 -12.168107 -1.020631 -1.060549 -0.000004 -0.000005 10.301399 397.108100 -6.426374 -17.381525 0.000003 -0.000004 2.173902 -357.082099 -2.199275 2.265711 2.142397 -0.572706 5.717797 -3.752675 -0.879000 -12.495494 5.673997 0.000000 -0.000005 167.754705 -177.198849 83.723503 -0.000005 0.000003 -12.238709 -277.859991 -176.992591 -300.610996 0.000004 0.000002 -10.253700 480.238360 -187.584875 158.305425 -2.882602 -1.580104 6.695799 -2.731723 -2.340816 32.001257 -4.235611 0.000006 -0.000013 -169.826602 242.604167 -72.056768 0.000013 0.000004 -10.709892 119.247658 -168.483896 168.818466 0.000000 0.000009 -11.716803 -8.118841 2.510981 8.244649 2.279498 0.210406 -2.475501 437.374060 -42.132114 20.038279 -0.000000 -0.000005 -20.742800 -15.864545 26.863042 -10.670114 0.000001 0.000004 -16.666000 19.168979 9.737084 16.133598 -1.961895 0.232298 -2.727406 -755.858295 -31.437042 -13.684329 0.000008 -0.000005 -20.526798 939.981234 117.206524 -211.228900 0.000002 0.000006 -16.867302 -391.093982 5.647271 -8.177473
40.938911 32.701500 41.650089 1073.429033 9.779710 3.146864 -0.637404 0.831597 5.390099 5.979614 -9.457459 10.691986 0.000001 -0.000004 4.429899 -11.845571 -0.952919 -1.044981 0.000010 -0.000002 10.301399 397.021438 -6.185581 -17.162479 -0.000007 0.000001 2.173903 -357.114064 -2.472237 2.312537 2.142397 -0.572698 5.717799 -4.066124 -0.576374 -12.080619 5.673992 0.000007 -0.000004 167.939271 -177.128921 83.314620 -0.000001 0.000004 -12.238707 -277.542251 -177.316915 -300.582309 0.000006 0.000009 -10.253699 480.496213 -187.510426 158.271493 -2.882603 -1.580096 6.695798 -2.671538 -2.268537 32.557681 -4.235598 0.000005 -0.000001 -170.357964 242.691047 -72.475889 0.000009 0.000004 -10.709899 118.863433 -168.642370 168.794192 0.000007 0.000008 -11.716796 -7.750081 2.509750 8.248350 2.279498 0.210402 -2.475504 437.404959 -41.957668 19.888353 -0.000008 0.000001 -20.742798 -16.374649 27.036800 -10.534558 0.000003 -0.000004 -16.666002 19.327159 9.553032 16.470586 -1.961895 0.232304 -2.727407 -755.226584 -31.272817 -13.156975 0.000005 -0.000009 -20.526802 939.225433 117.321258 -210.888251 0.000004 -0.000005 -16.867302 -390.936915 5.721377 -8.278880
40.946205 32.710098 41.654396 1073.444005 9.572775 3.164618 -0.637403 0.831597 5.390093 6.020892 -9.471949 10.562000 0.000004 -0.000002 4.429899 -11.592189 -0.917326 -1.039668 -0.000011 0.000006 10.301396 397.008734 -5.914456 -16.939084 -0.000005 -0.000010 2.173882 -357.136358 -2.758552 2.270925 2.142391 -0.572698 5.717803 -4.432008 -0.268833 -11.661228 5.674002 -0.000005 0.000001 168.307937 -176.987332 82.906250 0.000002 -0.000006 -12.238701 -277.144788 -177.951645 -300.660611 -0.000004 0.000002 -10.253706 480.923619 -187.536982 158.229761 -2.882607 -1.580097 6.695798 -2.570611 -2.112147 33.059434 -4.235607 -0.000001 -0.000007 -170.543649 242.489474 -72.628161 0.000001 -0.000001 -10.709898 118.411014 -168.758183 169.081633 0.000000 0.000010 -11.716795 -7.454671 2.399092 8.237587 2.279494 0.210407 -2.475500 437.625329 -41.851561 19.847625 -0.000003 -0.000007 -20.742798 -16.761397 27.143838 -10.424784 0.000001 0.000000 -16.666002 19.347095 9.454506 16.655099 -1.961902 0.232300 -2.727401 -754.866169 -31.097025 -12.841631 0.000005 -0.000004 -20.526806 938.804584 117.418629 -210.765486 0.000003 -0.000004 -16.867302 -391.004889 5.742621 -8.038090
